<svg width="201" height="310" viewBox="0 0 201 310" fill="none" xmlns="http://www.w3.org/2000/svg">
<path d="M102.603 265.404C113.989 253.716 124.284 243.132 135.13 231.996C137.444 233.889 140.902 236.716 144.452 239.622C136.011 246.787 127.807 253.256 120.221 260.382C115.33 264.983 110.899 270.256 107.047 275.791C100.684 284.928 102.577 288.544 113.437 289.517C114.291 289.596 115.133 289.767 115.948 289.885C116.29 301.429 102.827 311.828 92.2166 308.41C85.7348 306.319 81.567 299.851 83.4997 292.817C85.5113 285.533 88.8245 278.604 91.7958 270.913C81.7379 264.51 71.1409 257.726 60.4651 251.047C59.6894 250.56 58.2826 250.442 57.4543 250.81C41.309 258.068 29.0422 250.666 18.0377 239.977C13.791 235.848 10.767 230.458 7.1909 225.646C7.51959 225.015 7.86143 224.383 8.19012 223.766C13.7253 223.766 19.2736 223.463 24.7561 223.989C26.0709 224.121 27.5303 226.855 28.214 228.656C32.0794 238.767 39.35 243.96 48.1457 242.014C18.958 216.416 -4.74714 188.07 0.814301 146.01C4.33786 119.308 24.6641 88.1872 47.8433 72.2918C51.4984 81.2321 55.114 90.0016 58.5718 98.8237C58.8348 99.4942 58.1379 100.954 57.4543 101.506C42.558 113.602 38.4822 130.878 35.3926 148.416C30.6726 175.146 41.2827 208.672 60.4914 228.788C64.0807 222.674 67.6042 216.666 71.4959 210.013C65.3823 203.334 58.414 195.695 51.5247 188.162C57.7435 180.352 66.0659 178.235 76.5709 181.588C75.0984 188.661 70.8385 196.524 80.9885 202.9C87.2205 189.187 93.3867 175.645 100.276 160.486C88.6404 160.486 79.0821 160.486 67.6305 160.486C74.2964 124.764 66.3683 92.7626 48.1326 62.5494C41.3616 64.0613 34.1698 65.6785 26.8334 67.322C24.1908 61.8657 25.3478 58.5656 30.4096 55.213C39.705 49.0731 48.3561 41.9602 57.3359 35.3338C64.7512 29.8644 67.6042 30.1931 70.0628 38.8311C79.1215 70.5563 87.5755 102.452 96.2397 134.283C96.8708 136.584 97.3179 138.95 98.0278 142.106C113.121 142.106 128.096 142.106 144.623 142.106C135.669 155.398 134.631 169.006 135.985 182.876C138.273 206.332 149.382 224.581 169.104 237.571C173.561 240.502 177.545 240.318 180.069 235.375C180.805 233.942 179.753 231.47 179.214 229.55C178.623 227.394 177.689 225.343 176.914 223.24C178.675 222.648 180.411 221.609 182.186 221.544C188.444 221.333 194.715 221.465 201 221.465C200.408 232.39 186.34 251.073 177.308 251.126C170.642 251.165 162.99 248.26 157.495 244.302C147.831 237.347 139.482 228.578 129.661 219.729C115.462 224.107 99.6318 225.488 84.3149 217.81C78.7666 224.186 73.4023 230.379 66.8942 237.86C78.8191 247.05 90.113 255.754 102.603 265.404ZM124.231 211.144C118.512 201.349 113.358 192.514 108.204 183.692C101.262 192.303 94.8855 200.218 88.1803 208.527C99.7633 215.89 111.399 215.141 124.231 211.144Z" fill="#FFFECD"/>
<path d="M166.001 225.369C161.11 221.649 154.734 219.151 153.037 214.825C151.539 211.012 155.102 205.096 156.732 200.218C167.605 167.546 170.011 134.756 158.231 101.756C147.515 71.7395 125.375 57.8425 93.6496 61.182C84.6435 62.1286 84.6435 62.1286 82.0009 52.5703C90.8098 48.8101 96.9497 42.3152 100.329 33.2959C101.012 31.4815 101.709 29.4174 101.486 27.5898C101.249 25.6308 99.9211 23.7902 99.0796 21.9101C97.4493 22.6989 95.8059 23.4615 94.2018 24.2898C93.4656 24.6711 92.8082 25.2233 92.1377 25.6703C87.2862 20.0825 87.9567 9.14372 93.2552 4.29225C99.8027 -1.68992 109.703 -1.38753 115.725 5.00222C122.772 12.4569 123.626 23.7639 117.591 32.1652C114.423 36.5697 110.939 40.7243 107.363 45.2997C116.987 48.8101 126.098 51.6763 134.841 55.3971C153.839 63.496 170.787 74.6583 182.975 91.7108C202.657 119.216 204.432 149.166 194.071 180.523C188.431 197.615 179.872 212.879 166.001 225.369Z" fill="#FFFECD"/>
<path d="M162.504 66.3096C155.693 63.5354 153.432 60.288 157.205 53.5827C161.386 46.1411 166.093 39.7119 173.824 35.7282C183.146 30.9293 193.164 34.0848 195.82 44.1427C197.266 49.6121 196.306 56.107 194.9 61.7605C194.295 64.1928 189.838 67.0721 187.05 67.1642C184.355 67.2562 180.661 64.6135 178.978 62.1155C174.534 55.5285 170.958 55.0815 166.198 61.5107C165.041 63.0884 163.819 64.6004 162.504 66.3096Z" fill="#FFFECD"/>
<path d="M112.503 139.634C115.028 124.041 120.694 110.052 128.281 96.7464C129.792 94.0905 131.62 91.6188 133.053 88.9235C135.63 84.0589 139.14 83.7039 143.085 86.9119C146.858 89.9753 148.594 93.1571 144.321 97.7587C134.276 108.592 126.19 120.741 122.588 135.321C121.128 141.225 117.289 140.41 112.503 139.634Z" fill="#FFFECD"/>
</svg>
